<svg width="40" height="27" viewBox="0 0 40 27" fill="none" xmlns="http://www.w3.org/2000/svg">
<path d="M3.402 6.68V20H1.35V6.68H3.402ZM10.3981 20.162C9.46209 20.162 8.61609 19.952 7.86009 19.532C7.10409 19.1 6.51009 18.5 6.07809 17.732C5.64609 16.952 5.43009 16.052 5.43009 15.032C5.43009 14.024 5.65209 13.13 6.09609 12.35C6.54009 11.57 7.14609 10.97 7.91409 10.55C8.68209 10.13 9.54009 9.92 10.4881 9.92C11.4361 9.92 12.2941 10.13 13.0621 10.55C13.8301 10.97 14.4361 11.57 14.8801 12.35C15.3241 13.13 15.5461 14.024 15.5461 15.032C15.5461 16.04 15.3181 16.934 14.8621 17.714C14.4061 18.494 13.7821 19.1 12.9901 19.532C12.2101 19.952 11.3461 20.162 10.3981 20.162ZM10.3981 18.38C10.9261 18.38 11.4181 18.254 11.8741 18.002C12.3421 17.75 12.7201 17.372 13.0081 16.868C13.2961 16.364 13.4401 15.752 13.4401 15.032C13.4401 14.312 13.3021 13.706 13.0261 13.214C12.7501 12.71 12.3841 12.332 11.9281 12.08C11.4721 11.828 10.9801 11.702 10.4521 11.702C9.92409 11.702 9.43209 11.828 8.97609 12.08C8.53209 12.332 8.17809 12.71 7.91409 13.214C7.65009 13.706 7.51809 14.312 7.51809 15.032C7.51809 16.1 7.78809 16.928 8.32809 17.516C8.88009 18.092 9.57009 18.38 10.3981 18.38ZM21.5706 9.92C22.3386 9.92 23.0166 10.076 23.6046 10.388C24.2046 10.688 24.6726 11.066 25.0086 11.522V10.082H27.0786V20.162C27.0786 21.074 26.8866 21.884 26.5026 22.592C26.1186 23.312 25.5606 23.876 24.8286 24.284C24.1086 24.692 23.2446 24.896 22.2366 24.896C20.8926 24.896 19.7766 24.578 18.8886 23.942C18.0006 23.318 17.4966 22.466 17.3766 21.386H19.4106C19.5666 21.902 19.8966 22.316 20.4006 22.628C20.9166 22.952 21.5286 23.114 22.2366 23.114C23.0646 23.114 23.7306 22.862 24.2346 22.358C24.7506 21.854 25.0086 21.122 25.0086 20.162V18.506C24.6606 18.974 24.1866 19.37 23.5866 19.694C22.9986 20.006 22.3266 20.162 21.5706 20.162C20.7066 20.162 19.9146 19.946 19.1946 19.514C18.4866 19.07 17.9226 18.458 17.5026 17.678C17.0946 16.886 16.8906 15.992 16.8906 14.996C16.8906 14 17.0946 13.118 17.5026 12.35C17.9226 11.582 18.4866 10.988 19.1946 10.568C19.9146 10.136 20.7066 9.92 21.5706 9.92ZM25.0086 15.032C25.0086 14.348 24.8646 13.754 24.5766 13.25C24.3006 12.746 23.9346 12.362 23.4786 12.098C23.0226 11.834 22.5306 11.702 22.0026 11.702C21.4746 11.702 20.9826 11.834 20.5266 12.098C20.0706 12.35 19.6986 12.728 19.4106 13.232C19.1346 13.724 18.9966 14.312 18.9966 14.996C18.9966 15.68 19.1346 16.28 19.4106 16.796C19.6986 17.312 20.0706 17.708 20.5266 17.984C20.9946 18.248 21.4866 18.38 22.0026 18.38C22.5306 18.38 23.0226 18.248 23.4786 17.984C23.9346 17.72 24.3006 17.336 24.5766 16.832C24.8646 16.316 25.0086 15.716 25.0086 15.032ZM34.0758 20.162C33.1398 20.162 32.2938 19.952 31.5378 19.532C30.7818 19.1 30.1878 18.5 29.7558 17.732C29.3238 16.952 29.1078 16.052 29.1078 15.032C29.1078 14.024 29.3298 13.13 29.7738 12.35C30.2178 11.57 30.8238 10.97 31.5918 10.55C32.3598 10.13 33.2178 9.92 34.1658 9.92C35.1138 9.92 35.9718 10.13 36.7398 10.55C37.5078 10.97 38.1138 11.57 38.5578 12.35C39.0018 13.13 39.2238 14.024 39.2238 15.032C39.2238 16.04 38.9958 16.934 38.5398 17.714C38.0838 18.494 37.4598 19.1 36.6678 19.532C35.8878 19.952 35.0238 20.162 34.0758 20.162ZM34.0758 18.38C34.6038 18.38 35.0958 18.254 35.5518 18.002C36.0198 17.75 36.3978 17.372 36.6858 16.868C36.9738 16.364 37.1178 15.752 37.1178 15.032C37.1178 14.312 36.9798 13.706 36.7038 13.214C36.4278 12.71 36.0618 12.332 35.6058 12.08C35.1498 11.828 34.6578 11.702 34.1298 11.702C33.6018 11.702 33.1098 11.828 32.6538 12.08C32.2098 12.332 31.8558 12.71 31.5918 13.214C31.3278 13.706 31.1958 14.312 31.1958 15.032C31.1958 16.1 31.4658 16.928 32.0058 17.516C32.5578 18.092 33.2478 18.38 34.0758 18.38Z" fill="#F9F9F9"/>
</svg>
